<svg xmlns="http://www.w3.org/2000/svg" width="28" height="28" fill="none" viewBox="0 0 28 28" id="signature-sign">
  <g clip-path="url(#clip0_2588_9197)">
    <path fill="#1EB4EB" fill-opacity=".2" d="M0 14C0 2.471 2.471 0 14 0C25.529 0 28 2.471 28 14C28 25.529 25.529 28 14 28C2.471 28 0 25.529 0 14Z"></path>
    <g filter="url(#filter0_f_2588_9197)" opacity=".6">
      <ellipse cx="14" cy="22" fill="url(#paint0_linear_2588_9197)" rx="10" ry="3"></ellipse>
    </g>
    <path fill="url(#paint1_radial_2588_9197)" d="M23.1666 21.5C23.1666 21.7291 22.9791 21.9166 22.7499 21.9166H11.4999C11.2708 21.9166 11.0833 21.7291 11.0833 21.5C11.0833 21.2708 11.2708 21.0833 11.4999 21.0833H22.7499C22.9791 21.0833 23.1666 21.2708 23.1666 21.5ZM10.1833 19.6416C10.0624 19.85 9.05409 21.5 7.74575 21.7708C7.61659 21.7958 7.49159 21.8083 7.36659 21.8083C6.97492 21.8083 6.59992 21.675 6.24992 21.4125C5.62492 20.9458 5.44575 19.9583 5.72909 18.5625C6.18325 16.3125 8.01242 12.85 10.2958 11.7583C10.0208 10.0375 9.54575 8.57497 9.09159 8.00413C8.47909 7.23746 7.71242 6.94163 6.98742 7.1958C6.18325 7.47497 5.66659 8.3458 5.66659 9.4083C5.66659 10.2125 5.85409 10.8208 6.20409 11.1666C6.52909 11.4833 6.89992 11.4916 6.90825 11.4916C7.14159 11.4916 7.32909 11.6708 7.33325 11.9C7.33742 12.1291 7.15409 12.3208 6.92492 12.325C6.84992 12.325 6.19575 12.325 5.62075 11.7625C5.09575 11.25 4.83325 10.4583 4.83325 9.4083C4.83325 7.98746 5.57075 6.8083 6.71242 6.4083C7.77492 6.03747 8.90825 6.43746 9.74159 7.4833C10.3083 8.19163 10.8166 9.7083 11.1124 11.475C12.3499 11.1875 13.2708 11.3125 13.8458 11.8416C14.5166 12.4625 14.4458 13.4 14.4166 13.6041V17.6C14.4166 18.0166 14.5624 18.4 14.8166 18.65C14.9083 18.7416 15.0416 18.8458 15.1499 18.8166C15.2249 18.8 15.6249 18.6375 16.1083 17.1916C16.7124 15.375 17.3208 14.5041 18.0166 14.4583C18.5041 14.4291 18.8416 14.8166 18.9583 15.0541C18.9958 15.1291 19.0083 15.2166 18.9999 15.3C18.8541 16.3375 18.8958 17.9041 19.3624 18.1333C19.4749 18.1916 19.9541 18.2833 21.2083 17.0291C21.3708 16.8666 21.6333 16.8666 21.7958 17.0291C21.9583 17.1916 21.9583 17.4541 21.7958 17.6166C20.5999 18.8125 19.6833 19.225 18.9874 18.8791C17.8916 18.3291 18.0624 16.1 18.1541 15.3416C18.1208 15.3083 18.0958 15.2875 18.0749 15.2875C18.0708 15.2875 17.5999 15.35 16.8999 17.4541C16.4541 18.7916 15.9583 19.4791 15.3416 19.625C15.0749 19.6875 14.6666 19.6708 14.2291 19.2375C13.8166 18.825 13.5874 18.2416 13.5874 17.5958V13.5708C13.5874 13.55 13.5874 13.525 13.5916 13.5041C13.5916 13.5 13.6916 12.825 13.2791 12.4458C12.9124 12.1125 12.2083 12.0625 11.2333 12.3C11.5541 14.9541 11.3708 17.9583 10.1874 19.6333L10.1833 19.6416ZM10.4166 12.6416C8.66242 13.65 7.00825 16.4541 6.54575 18.7333C6.34575 19.7333 6.42075 20.5041 6.74992 20.75C7.01659 20.95 7.28742 21.0166 7.57909 20.9583C8.41242 20.7875 9.22909 19.6375 9.47492 19.2125C9.48325 19.2 9.49159 19.1875 9.49575 19.1791C10.5499 17.7041 10.6874 15.0333 10.4166 12.6458V12.6416Z"></path>
  </g>
  <defs>
    <radialGradient id="paint1_radial_2588_9197" cx="0" cy="0" r="1" gradientTransform="matrix(18.3333 15.4101 -11.3534 9.83489 4.833 6.273)" gradientUnits="userSpaceOnUse">
      <stop stop-color="#8ED9F5"></stop>
      <stop offset=".5" stop-color="#1EB4EB"></stop>
    </radialGradient>
    <linearGradient id="paint0_linear_2588_9197" x1="14" x2="14" y1="19" y2="25" gradientUnits="userSpaceOnUse">
      <stop stop-color="#1EB4EB" stop-opacity="0"></stop>
      <stop offset="1" stop-color="#1EB4EB"></stop>
    </linearGradient>
    <clipPath id="clip0_2588_9197">
      <rect width="28" height="28" fill="#fff"></rect>
    </clipPath>
    <filter id="filter0_f_2588_9197" width="28" height="14" x="0" y="15" color-interpolation-filters="sRGB" filterUnits="userSpaceOnUse">
      <feFlood flood-opacity="0" result="BackgroundImageFix"></feFlood>
      <feBlend in="SourceGraphic" in2="BackgroundImageFix" result="shape"></feBlend>
      <feGaussianBlur result="effect1_foregroundBlur_2588_9197" stdDeviation="2"></feGaussianBlur>
    </filter>
  </defs>
</svg>
